<?xml version="1.0" standalone="no"?>
<!DOCTYPE svg PUBLIC "-//W3C//DTD SVG 20010904//EN"
 "http://www.w3.org/TR/2001/REC-SVG-20010904/DTD/svg10.dtd">
<svg version="1.0" xmlns="http://www.w3.org/2000/svg"
 width="1000.000000pt" height="1000.000000pt" viewBox="0 0 1000.000000 1000.000000"
 preserveAspectRatio="xMidYMid meet">
<metadata>
Created by potrace 1.14, written by Peter Selinger 2001-2017
</metadata>
<g transform="translate(0.000000,1000.000000) scale(0.100000,-0.100000)"
fill="#000000" stroke="none">
<path d="M4575 7144 c-625 -37 -1073 -96 -1543 -205 -1408 -326 -2357 -976
-2496 -1709 -32 -164 -12 -422 46 -600 181 -563 840 -1069 1823 -1399 997
-335 2225 -460 3430 -350 1844 168 3270 870 3553 1749 58 178 78 436 46 600
-126 667 -930 1273 -2149 1619 -490 140 -988 226 -1595 277 -173 14 -961 27
-1115 18z m800 -14 c1089 -49 2070 -269 2804 -630 739 -363 1172 -818 1247
-1310 18 -119 18 -181 0 -300 -105 -690 -928 -1311 -2207 -1665 -1123 -311
-2532 -368 -3769 -154 -1505 260 -2608 891 -2861 1637 -33 94 -59 244 -59 332
0 30 7 98 14 150 105 690 928 1311 2207 1665 773 214 1737 315 2624 275z"/>
<path d="M2271 6236 c-53 -19 -111 -74 -137 -130 -19 -41 -24 -68 -24 -138 l0
-87 -47 -3 -48 -3 0 -85 0 -85 48 -3 47 -3 -1 -187 c0 -103 -4 -207 -7 -232
-7 -44 -8 -45 -47 -50 l-40 -5 -3 -77 -3 -78 196 0 196 0 -3 78 -3 77 -35 3
c-19 2 -38 9 -42 15 -4 7 -8 112 -8 234 l0 222 48 3 47 3 0 85 0 85 -47 3 -48
3 0 80 c0 124 31 154 86 82 41 -55 55 -63 98 -60 54 3 81 40 80 108 -1 57 -38
112 -95 141 -40 21 -155 23 -208 4z"/>
<path d="M6605 6219 c-44 -16 -92 -29 -107 -29 l-28 0 0 -80 0 -80 45 0 45 0
0 -480 0 -480 70 0 c67 0 70 1 85 30 l16 30 49 -34 c112 -77 235 -52 320 65
67 93 102 266 82 406 -20 145 -58 225 -135 287 -36 29 -45 31 -116 31 -68 0
-83 -3 -119 -27 -23 -16 -44 -28 -47 -28 -3 0 -5 95 -5 210 l0 210 -37 -1
c-21 -1 -74 -15 -118 -30z m314 -551 c34 -35 46 -87 45 -193 0 -109 -13 -160
-51 -205 -32 -38 -80 -41 -120 -6 l-28 24 -3 179 -3 178 33 23 c43 29 100 29
127 0z"/>
<path d="M2635 5864 c-27 -13 -71 -27 -97 -30 l-48 -7 0 -78 0 -79 45 0 45 0
-2 -217 -3 -218 -40 -5 -40 -5 -3 -77 -3 -78 196 0 196 0 -3 78 -3 77 -40 5
c-37 5 -40 7 -47 45 -4 22 -7 106 -7 187 l-1 148 26 16 c21 15 31 15 58 6 84
-31 135 -5 157 78 23 90 -25 180 -96 180 -46 0 -69 -12 -122 -63 l-43 -41 0
52 0 52 -37 -1 c-21 0 -60 -11 -88 -25z"/>
<path d="M3300 5873 c-66 -24 -160 -122 -190 -198 -29 -74 -39 -248 -20 -334
26 -119 94 -212 188 -258 50 -24 69 -28 148 -28 81 0 97 3 149 30 71 36 133
108 166 192 21 51 24 74 24 198 0 124 -3 147 -24 200 -32 80 -125 175 -195
198 -62 21 -185 21 -246 0z m186 -178 c12 -8 31 -37 43 -66 20 -45 22 -65 19
-168 -3 -132 -20 -180 -72 -212 -47 -29 -83 -24 -121 14 -43 43 -56 94 -56
217 0 109 14 156 58 203 21 21 36 27 68 27 22 0 50 -7 61 -15z"/>
<path d="M4015 5871 c-122 -55 -177 -219 -114 -342 27 -55 71 -86 209 -152 69
-32 133 -66 143 -74 24 -22 21 -59 -5 -77 -61 -43 -165 8 -235 113 -21 31 -38
57 -39 58 0 2 -26 -11 -57 -28 -60 -32 -65 -42 -47 -95 5 -16 21 -68 35 -116
l26 -88 44 0 c34 0 45 4 50 19 5 18 8 18 53 -7 63 -36 175 -38 238 -5 95 50
153 162 140 266 -15 111 -65 161 -245 243 -58 26 -116 54 -128 62 -25 15 -30
51 -11 70 16 16 83 15 117 -2 27 -14 86 -76 106 -110 10 -17 14 -16 68 10 33
16 57 35 57 44 0 8 -11 60 -23 115 l-22 100 -40 3 c-27 2 -43 -1 -51 -12 -10
-15 -16 -14 -55 4 -58 26 -159 26 -214 1z"/>
<path d="M4675 5871 c-122 -55 -177 -219 -114 -342 27 -55 71 -86 209 -152 69
-32 133 -66 143 -74 24 -22 21 -59 -5 -77 -61 -43 -165 8 -235 113 -21 31 -38
57 -39 58 0 2 -26 -11 -57 -28 -60 -32 -65 -42 -47 -95 5 -16 21 -68 35 -116
l26 -88 44 0 c34 0 45 4 50 19 5 18 8 18 53 -7 63 -36 175 -38 238 -5 95 50
153 162 140 266 -15 111 -65 161 -245 243 -58 26 -116 54 -128 62 -25 15 -30
51 -11 70 16 16 83 15 117 -2 27 -14 86 -76 106 -110 10 -17 14 -16 68 10 33
16 57 35 57 44 0 8 -11 60 -23 115 l-22 100 -40 3 c-27 2 -43 -1 -51 -12 -10
-15 -16 -14 -55 4 -58 26 -159 26 -214 1z"/>
<path d="M5384 5874 c-56 -20 -123 -79 -145 -128 -43 -96 -5 -186 79 -186 36
0 64 29 92 95 25 60 43 75 87 75 53 0 73 -28 73 -102 l0 -63 -89 -17 c-200
-39 -291 -120 -291 -259 0 -100 47 -186 116 -215 74 -31 180 -10 261 51 l32
25 18 -24 c35 -44 83 -66 145 -66 31 0 68 4 82 10 25 9 26 13 26 85 l0 75 -40
0 c-27 0 -42 5 -49 18 -5 9 -11 121 -13 247 -5 244 -9 268 -56 319 -48 51
-116 76 -207 75 -44 0 -99 -7 -121 -15z m186 -522 l0 -68 -39 -22 c-71 -40
-131 -20 -131 43 0 45 33 82 88 99 82 25 82 25 82 -52z"/>
<path d="M6085 5864 c-27 -13 -71 -27 -97 -30 l-48 -7 0 -78 0 -79 45 0 45 0
-2 -217 -3 -218 -40 -5 -40 -5 -3 -77 -3 -78 196 0 196 0 -3 78 -3 77 -40 5
c-37 5 -40 7 -47 45 -4 22 -7 106 -7 187 l-1 148 26 16 c21 15 31 15 58 6 84
-31 135 -5 157 78 23 90 -25 180 -96 180 -46 0 -69 -12 -122 -63 l-43 -41 0
52 0 52 -37 -1 c-21 0 -60 -11 -88 -25z"/>
<path d="M7510 5873 c-66 -24 -160 -122 -190 -198 -29 -74 -39 -248 -20 -334
26 -119 94 -212 188 -258 50 -24 69 -28 148 -28 81 0 97 3 149 30 71 36 133
108 166 192 21 51 24 74 24 198 0 124 -3 147 -24 200 -32 80 -125 175 -195
198 -62 21 -185 21 -246 0z m186 -178 c12 -8 31 -37 43 -66 20 -45 22 -65 19
-168 -3 -132 -20 -180 -72 -212 -47 -29 -83 -24 -121 14 -43 43 -56 94 -56
217 0 109 14 156 58 203 21 21 36 27 68 27 22 0 50 -7 61 -15z"/>
<path d="M3312 4703 c-21 -8 -42 -60 -42 -105 0 -121 113 -159 164 -55 22 47
16 94 -20 137 -25 29 -64 38 -102 23z"/>
<path d="M3612 4703 c-21 -8 -42 -60 -42 -105 0 -121 113 -159 164 -55 22 47
16 94 -20 137 -25 29 -64 38 -102 23z"/>
<path d="M5374 4430 c-22 -9 -84 -75 -84 -90 0 -5 -25 4 -56 21 -48 25 -67 29
-133 29 -63 0 -87 -5 -129 -26 -101 -50 -160 -167 -149 -290 6 -66 36 -141 67
-169 19 -17 18 -19 -23 -65 -42 -46 -67 -103 -67 -149 0 -33 36 -96 65 -115
l27 -18 -41 -35 c-51 -43 -71 -80 -71 -130 0 -107 113 -179 295 -190 113 -7
192 8 275 49 204 104 195 369 -15 431 -33 10 -120 28 -192 42 -73 13 -137 26
-143 30 -14 9 -12 41 3 54 9 7 37 8 78 5 129 -12 225 40 275 150 33 75 39 133
19 201 -21 73 -16 84 35 82 58 -2 85 27 85 94 0 43 -4 54 -28 75 -29 25 -57
29 -93 14z m-212 -231 c39 -52 35 -163 -7 -205 -31 -31 -66 -30 -102 0 -26 23
-28 29 -28 104 0 72 3 83 25 107 32 34 84 32 112 -6z m116 -735 c14 -10 22
-24 22 -44 0 -40 -44 -62 -135 -68 -157 -10 -238 55 -171 136 l25 29 118 -19
c65 -11 128 -26 141 -34z"/>
<path d="M3394 4374 c-56 -20 -123 -79 -145 -128 -43 -96 -5 -186 79 -186 36
0 64 29 92 95 25 60 43 75 87 75 53 0 73 -28 73 -102 l0 -63 -89 -17 c-200
-39 -291 -120 -291 -259 0 -100 47 -186 116 -215 74 -31 180 -10 261 51 l32
25 18 -24 c35 -44 83 -66 145 -66 31 0 68 4 82 10 25 9 26 13 26 85 l0 75 -40
0 c-27 0 -42 5 -49 18 -5 9 -11 121 -13 247 -5 244 -9 268 -56 319 -48 51
-116 76 -207 75 -44 0 -99 -7 -121 -15z m186 -522 l0 -68 -39 -22 c-71 -40
-131 -20 -131 43 0 45 33 82 88 99 82 25 82 25 82 -52z"/>
<path d="M4110 4370 c-25 -10 -69 -24 -97 -31 l-53 -12 0 -79 0 -78 45 0 45 0
0 -208 c0 -148 -3 -211 -12 -220 -7 -7 -27 -12 -45 -12 l-33 0 0 -80 0 -80
180 0 181 0 -3 77 c-3 78 -3 78 -33 83 l-30 5 0 195 0 194 43 33 c47 36 110
45 131 19 8 -9 11 -78 9 -227 l-3 -214 -32 -3 -33 -3 0 -80 0 -79 185 0 186 0
-3 78 -3 77 -40 5 c-37 5 -40 7 -47 45 -4 22 -7 133 -7 246 -1 129 -5 219 -13
240 -28 82 -93 129 -181 129 -68 0 -115 -18 -174 -66 l-43 -35 0 50 0 51 -37
-1 c-21 -1 -58 -9 -83 -19z"/>
<path d="M5734 4374 c-56 -20 -123 -79 -145 -128 -43 -96 -5 -186 79 -186 36
0 64 29 92 95 25 60 43 75 87 75 53 0 73 -28 73 -102 l0 -63 -89 -17 c-200
-39 -291 -120 -291 -259 0 -100 47 -186 116 -215 74 -31 180 -10 261 51 l32
25 18 -24 c35 -44 83 -66 145 -66 31 0 68 4 82 10 25 9 26 13 26 85 l0 75 -40
0 c-27 0 -42 5 -49 18 -5 9 -11 121 -13 247 -5 244 -9 268 -56 319 -48 51
-116 76 -207 75 -44 0 -99 -7 -121 -15z m186 -522 l0 -68 -39 -22 c-71 -40
-131 -20 -131 43 0 45 33 82 88 99 82 25 82 25 82 -52z"/>
<path d="M6435 4364 c-27 -13 -71 -27 -97 -30 l-48 -7 0 -78 0 -79 45 0 45 0
-2 -217 -3 -218 -40 -5 -40 -5 -3 -77 -3 -78 196 0 196 0 -3 78 -3 77 -40 5
c-37 5 -40 7 -47 45 -4 22 -7 106 -7 187 l-1 148 26 16 c21 15 31 15 58 6 84
-31 135 -5 157 78 23 90 -25 180 -96 180 -46 0 -69 -12 -122 -63 l-43 -41 0
52 0 52 -37 -1 c-21 0 -60 -11 -88 -25z"/>
</g>
</svg>
